
<svg width="259px" height="289px" viewBox="0 0 259 289" version="1.1" xmlns="http://www.w3.org/2000/svg" xmlns:xlink="http://www.w3.org/1999/xlink">
    <defs>
        <filter x="-5.9%" y="-5.5%" width="111.9%" height="110.6%" filterUnits="objectBoundingBox" id="filter-1">
            <feOffset dx="0" dy="2" in="SourceAlpha" result="shadowOffsetOuter1"></feOffset>
            <feGaussianBlur stdDeviation="2" in="shadowOffsetOuter1" result="shadowBlurOuter1"></feGaussianBlur>
            <feColorMatrix values="0 0 0 0 0   0 0 0 0 0   0 0 0 0 0  0 0 0 0.5 0" type="matrix" in="shadowBlurOuter1" result="shadowMatrixOuter1"></feColorMatrix>
            <feMerge>
                <feMergeNode in="shadowMatrixOuter1"></feMergeNode>
                <feMergeNode in="SourceGraphic"></feMergeNode>
            </feMerge>
        </filter>
        <rect id="path-2" x="0" y="0" width="250" height="281"></rect>
        <filter x="-2.8%" y="-1.8%" width="105.6%" height="105.0%" filterUnits="objectBoundingBox" id="filter-3">
            <feOffset dx="0" dy="2" in="SourceAlpha" result="shadowOffsetOuter1"></feOffset>
            <feMorphology radius="3" operator="erode" in="SourceAlpha" result="shadowInner"></feMorphology>
            <feOffset dx="0" dy="2" in="shadowInner" result="shadowInner"></feOffset>
            <feComposite in="shadowOffsetOuter1" in2="shadowInner" operator="out" result="shadowOffsetOuter1"></feComposite>
            <feGaussianBlur stdDeviation="2" in="shadowOffsetOuter1" result="shadowBlurOuter1"></feGaussianBlur>
            <feColorMatrix values="0 0 0 0 0   0 0 0 0 0   0 0 0 0 0  0 0 0 0.5 0" type="matrix" in="shadowBlurOuter1"></feColorMatrix>
        </filter>
    </defs>
    <g id="Page-1" stroke="none" stroke-width="1" fill="none" fill-rule="evenodd">
        <g id="Mobile" transform="translate(-31.000000, -20.000000)">
            <g id="Group-2" transform="translate(35.000000, 22.000000)">
                <g id="Group" filter="url(#filter-1)" transform="translate(31.000000, 46.000000)" stroke="#000000" stroke-width="2">
                    <path d="M109.58815,181.752178 C99.9307978,177.43603 74.6938056,161.503841 64.1345365,174.418682 C60.6733866,178.651949 54.0456339,185.336976 57.6208646,189.474346 C60.8504257,193.211696 64.6656659,181.364095 69.5598295,180.697002 L73.302017,179.505108 C74.8749129,179.290717 76.5170584,179.182515 78.064224,179.537823 C84.8006298,181.084843 91.1944802,184.072937 98.0168607,185.180889 C101.406631,185.731387 104.92373,185.110384 108.293228,184.447002 C109.135201,184.281236 109.596939,183.330792 110.248794,182.772686 L109.58815,181.752178 Z" id="Path-15"></path>
                    <path d="M115.221939,211.9221 C106.975109,199.823371 74.8637193,192.235674 71.6662748,208.633526 C71.1660523,211.198879 75.4423802,212.458482 77.8684232,213.430889 C93.227186,219.586991 99.1305043,218.002086 113.175064,212.271221 L115.221939,211.9221 Z" id="Path-16"></path>
                    <path d="M87.4289701,200.251202 C71.6780091,209.3524 101.439341,228.855216 102.252701,203.308331" id="Path-17"></path>
                    <path d="M71.1677396,204.323467 C75.2030083,195.69054 73.880107,192.966705 84.1115873,191.279034 C91.6090566,190.042335 114.000704,188.902735 118.579361,199.827862 C121.832747,207.590762 117.496029,233.277569 110.845962,233.277569" id="Path-18"></path>
                    <path d="M151.845962,183.611553 C153.955012,179.789776 154.824978,174.94695 158.173111,172.146221 C166.988412,164.77218 201.757846,164.891678 212.71022,172.344463 C215.018842,173.915416 220.749661,177.50346 218.209732,178.663799 C214.039785,180.568794 209.294474,176.25885 204.717544,175.995831 C187.741764,175.020293 169.235861,177.484347 153.192642,182.802959 L151.845962,183.611553 Z" id="Path-19"></path>
                    <path d="M156.851822,210.687725 C174.449452,172.320189 233.887256,211.065497 177.308365,213.033428 C171.167842,213.247008 165.086359,211.757061 158.975357,211.118877 L156.851822,210.687725 Z" id="Path-20"></path>
                    <path d="M184.233169,194.32835 C182.066177,194.381736 179.843268,193.996503 177.732193,194.488506 C151.382337,200.629553 193.836504,229.033014 189.251724,201.241436 C188.844285,198.77166 186.41774,197.114483 185.000747,195.051006 L184.233169,194.32835 Z" id="Path-21"></path>
                    <path d="M207.794204,203.038311 C203.610773,198.182028 200.542179,192.076808 195.243912,188.469463 C179.745235,177.917134 155.385516,194.3949 150.791275,209.272686 C147.797762,218.966745 151.684945,225.122912 154.780533,234.011944" id="Path-22"></path>
                    <path d="M214.920669,117.028057 C213.692045,115.298072 212.453478,113.711556 211.201266,112.261892 C197.184019,96.0343679 181.457049,96.9551929 158.827896,105.742901 C153.588358,107.777601 149.256337,112.153462 143.753677,113.299542 C32.1447931,136.545142 172.322647,103.536117 101.028091,111.172588 C36.3807604,118.097066 53.4102389,191.978694 56.2624662,233.968487" id="Path-23"></path>
                    <path d="M215.953872,47.5612603 C202.127911,44.9264875 182.764562,41.9066413 171.092544,35.4089165 C165.926514,32.533026 163.946416,25.8496897 159.397232,22.072979 C155.337598,18.7026903 149.535925,17.8109891 145.626724,14.267315 C142.535122,11.4647903 142.519199,5.92725313 139.041763,3.62083058 C132.510289,-0.71119404 103.373145,0.0114332452 100.531997,0.0964165182 C76.9523064,0.801722742 65.5376706,5.92755997 47.5935209,20.5720025 C45.9629037,21.9027693 39.3445963,31.1203804 41.5944974,32.7858696 C44.4754256,34.9184767 53.029821,27.0440168 52.1032865,30.5065728 C47.1898806,48.8684835 29.3901206,43.0649193 21.0251615,55.4880181 C17.2334813,61.1191775 13.3278405,66.9894581 11.6482084,73.5671196 C11.1534746,75.5045625 18.660759,69.7853776 17.0661771,70.9919243 C14.4572456,72.9659828 10.0329145,72.9747515 8.56617714,75.8991509 C6.07923666,80.857644 7.52357494,86.9722573 6.33375526,92.3903618 C4.15114158,102.329371 -2.71394335,114.339853 1.16578651,125.338604 C2.34358853,128.677587 6.78260992,129.868791 8.64723182,132.878643 C12.0913666,138.438127 12.6735963,145.676697 16.8718412,150.691143 C42.166682,180.903676 1.62434635,107.777746 31.8093412,158.928448 C32.9604118,160.879022 31.9638008,163.502456 32.595474,165.677471 C33.8701013,170.066344 35.3252562,174.459549 37.4890287,178.485088 C41.9107683,186.71141 47.2436088,198.16779 53.2458646,205.590557" id="Path-24"></path>
                    <path d="M159.882583,85.6647759 C155.791893,81.5096554 139.310549,64.2662635 135.579849,62.6120415 C87.54727,41.3140136 190.109577,100.83569 105.705826,42.6911431 C92.3548996,33.4938796 82.3799221,44.4983043 78.0388334,56.135479 C68.7529918,81.0280737 88.6967242,120.090639 70.3318021,135.396221 C67.9697217,137.364812 63.0799224,140.132703 61.3689115,137.577862 C59.7399158,135.145483 66.283992,134.080228 67.7556303,131.549542 C70.5199771,126.795864 73.552607,121.693345 73.8005521,116.199932 C74.1712432,107.986989 53.9694168,33.9034313 92.1843412,40.2565728 C99.0615796,41.3998975 106.234636,42.9903348 112.025162,46.8727837 C119.371528,51.7983973 123.485389,60.5258614 130.483169,65.9352837 C163.646466,91.5711688 136.764602,60.7596964 155.129654,83.5251275 L159.882583,85.6647759 Z" id="Path-25"></path>
                    <path d="M33.7927396,101.620831 C4.52653684,90.2919779 16.072028,121.094313 7.50758339,134.319073 C5.21439196,137.860097 5.77445089,125.797841 6.7234037,121.687237 C9.40717502,110.061873 13.6695845,98.8177285 18.2468412,87.7995415 C20.4115957,82.5886321 23.5932886,77.8279365 26.8562162,73.2243462 C29.7879553,69.0880223 33.3276092,65.4121758 36.7595365,61.6804009 C37.3798012,61.0059437 38.0784181,59.8486222 38.9724271,60.0495415 C39.6498933,60.2017951 38.620653,61.3975678 38.3542631,62.0387993 C34.7222967,70.7813659 30.5976838,79.3251361 27.2810209,88.1921196 C25.5456318,92.8316223 24.4199175,97.6810178 23.2243803,102.488018 C21.9443951,107.634565 20.6459489,112.793329 19.8581693,118.037823 C19.4811094,120.548028 18.4540901,127.837749 19.7448881,125.652081 C33.0747311,103.081068 30.5896862,95.1632153 50.0222318,74.3864556 C52.9680723,71.2368415 63.2287484,63.3161542 59.7175443,65.8200493 C37.9776623,81.3231027 33.0993852,90.0600332 33.3943021,116.278057 C33.4175264,118.342683 33.7736926,124.124366 34.7722318,122.31712 C59.8266471,76.9713904 18.1532356,133.515505 46.5515287,90.6833306 C49.4771795,86.2706714 57.2987378,73.5008487 57.079849,78.7907525 L65.1814115,76.0153618 C64.976109,80.9769244 58.8204208,83.7698578 56.6882474,88.2546196 C49.9506571,102.426304 45.9855796,117.861529 38.6833646,131.750713 C36.4824922,135.936885 39.8022439,122.309925 41.1648099,117.780987 C42.7766216,112.423598 44.9618048,107.218534 47.5554349,102.261456 C51.4317005,94.8529382 55.7281848,87.6396401 60.5202787,80.7878228 C64.0420979,75.7522658 73.8054114,72.6955846 72.4206693,66.7087212 C71.2818276,61.7849958 62.2845543,66.1523664 57.2595365,66.6901665 C42.2100989,68.3008253 25.1946042,116.572863 44.829849,68.3024712 C47.7706174,61.0730201 51.2849193,54.0389566 55.4245756,47.4225884 C59.7279203,40.5445986 64.7916205,34.144282 70.0612943,27.9753228 C72.4860104,25.1368218 75.1501464,22.3283143 78.4118803,20.5124321 C82.3285997,18.3319044 93.7811518,19.8657897 91.1599271,16.229229 C89.2087695,13.5222869 64.8105207,24.2099384 64.0144193,24.4958306 C62.0861006,25.1883194 67.6290784,22.4782179 69.6081693,21.947979 C73.0891337,21.0153575 76.6655551,20.2595611 80.267349,20.1413384 C90.3464398,19.8105096 100.7241,23.0114028 110.517349,20.6052056 C115.803238,19.306465 100.064161,17.4447713 94.6872709,16.5983696 C85.5734491,15.1637201 76.274611,15.163896 67.1530912,13.7790337 C66.4495696,13.6722225 65.0868783,12.531357 65.7165678,12.1999321 C73.359597,8.17717189 99.0370668,9.72766641 100.216568,9.91086964 C108.428172,11.1863178 116.215887,14.5660037 123.846451,17.8571587 C128.333511,19.7924826 141.160454,24.5999391 136.357193,25.4987603 C131.754559,26.3600387 108.963847,14.8030724 107.362076,8.41575246 C106.506483,5.00393712 114.21691,10.2158779 117.356216,11.8024712 C124.104506,15.2130307 137.063241,25.5235658 141.260513,30.6032525 C145.777392,36.0697379 159.011755,45.5088922 152.623794,48.5876275 C146.380689,51.5965483 93.7981491,31.3481884 89.1980131,28.8425103 C82.7882803,25.3511511 103.298097,32.7007174 110.131607,35.2653618 C118.040146,38.233469 125.762226,41.7063376 133.35231,45.4137993 C137.671949,47.5237755 141.962785,49.8000408 145.804458,52.6901665 C150.293028,56.0669582 163.771831,63.4037461 158.19899,64.1061821 C141.453462,66.2168938 124.837238,58.6791606 108.003677,57.454815 C99.4625567,56.8335986 90.8365635,57.537265 82.3376615,58.588604 C79.9538774,58.8834851 73.4272507,60.7429522 75.7234037,61.447979 C80.798477,63.0062649 86.3544195,61.0741598 91.6501615,61.447979 C96.0721167,61.7601188 100.537876,62.2458736 104.78981,63.4997368 C111.324983,65.4269097 117.678231,68.0060111 123.828872,70.9372368 C131.913885,74.7903304 138.570587,82.3821007 147.41188,83.8122368 C150.496028,84.3111175 149.525429,77.7608881 151.606216,75.4304009 C154.951245,71.6839604 159.094885,68.6630511 163.337662,65.9753228 C168.297707,62.833216 182.737606,64.908308 184.82399,65.1970025 C187.257693,65.5337559 189.785339,66.1806269 191.793084,67.5967052 C192.859086,68.3485649 194.564105,71.6169018 193.329418,71.1959489 C182.25613,67.4206335 162.575047,47.8715725 159.15238,42.0302416 C156.656376,37.7704087 168.647661,52.022549 172.349279,48.7554039 C175.875186,45.6433454 166.73515,40.9528236 165.520577,36.4095048 C163.33195,28.2225708 164.555443,19.3608265 162.306896,11.1901464 C161.432859,8.01410704 161.290954,17.7254271 161.285302,21.0195331 C161.277099,25.8010967 161.003794,30.718607 162.26548,35.3307178 C163.606238,40.2318776 166.057496,44.852683 168.94824,49.0315102 C170.864819,51.8020953 177.432176,59.0365502 176.437625,55.8178103 C171.966865,41.3487503 159.280834,11.0238057 138.304378,9.78792053 C134.635472,9.57175693 125.139443,7.17355646 127.284775,10.1577058 C130.349577,14.4208337 137.480637,12.9173509 142.203394,15.2114385 C148.802286,18.4168623 155.282761,22.039976 161.058501,26.5633546 C173.529943,36.3305986 190.192121,53.9801758 198.291444,67.8767559 C199.759744,70.396021 198.728221,73.7287566 199.500396,76.5405793 C200.900726,81.6397899 210.038419,90.9520314 204.778958,91.5006139 C184.588196,93.6065901 164.615693,85.5470973 144.581853,82.2688003 C139.395379,81.4200961 155.174264,82.7690813 160.228209,84.2104197 C167.920678,86.4042407 185.341429,85.6030698 182.522812,93.0892117 C179.442519,101.270358 125.877327,99.1417111 117.405098,95.0308311 C112.507393,92.6543754 109.126356,87.9172308 104.592776,84.9036439 C97.9242487,80.470903 86.3303358,65.1211681 83.8759237,72.7431306 C79.790707,85.4294146 92.2678558,98.0444252 96.267183,110.758047 C97.4014596,114.363844 92.7565835,103.841063 92.4726927,100.071744 C92.0490486,94.4468712 92.3567843,88.5702297 94.1944131,83.2371448 C94.6436291,81.93345 97.0598575,82.5371576 98.3281199,83.0783836 C112.858452,89.2791464 147.757094,117.664893 141.19462,103.2943 C132.996316,85.341546 105.180631,84.8527281 92.3070289,69.8933185 C88.1612462,65.0758276 104.975665,68.4455592 111.329771,68.5906881 C118.524362,68.7550137 125.816512,69.0963774 132.803944,70.8182748 C148.525482,74.6924987 163.678313,80.591775 179.16812,85.3079426 C184.523643,86.9385338 163.234641,85.6739237 163.209172,80.0757269 L162.130385,76.1993907 C162.117434,73.352793 162.038228,70.340237 163.152965,67.720953 C163.625603,66.6103995 165.204226,66.1603644 166.41102,66.1412302 C169.812407,66.0872996 173.49876,65.9540009 176.524401,67.5089428 C187.025649,72.9057597 194.800031,84.0900968 206.325153,86.6539611 C218.689092,89.4044275 179.24814,62.9265655 190.525953,59.5541211 C196.493689,57.7695677 201.490682,65.4979099 207.194888,68.0000177 C207.566403,68.1629796 207.267762,67.1235947 207.031197,66.7940245 C202.884244,61.0166947 199.627586,49.6039027 192.375865,47.9201821 C190.042258,47.37836 183.366909,46.010632 185.198086,47.5553272 C204.241007,63.6190439 198.763403,49.9379895 209.565459,63.0330613 C210.730086,64.4449114 211.254309,66.2805981 212.098735,67.9043665" id="Path-26"></path>
                </g>
                <g id="Rectangle">
                    <use fill="black" fill-opacity="1" filter="url(#filter-3)" xlink:href="#path-2"></use>
                    <rect stroke="#000000" stroke-width="3" stroke-linejoin="square" x="1.5" y="1.5" width="247" height="278"></rect>
                </g>
            </g>
        </g>
    </g>
</svg>